<?xml version="1.0" standalone="no"?>
<!DOCTYPE svg PUBLIC "-//W3C//DTD SVG 20010904//EN"
 "http://www.w3.org/TR/2001/REC-SVG-20010904/DTD/svg10.dtd">
<svg version="1.0" xmlns="http://www.w3.org/2000/svg"
 width="320.000000pt" height="320.000000pt" viewBox="0 0 320.000000 320.000000"
 preserveAspectRatio="xMidYMid meet">
<metadata>
Created by potrace 1.11, written by Peter Selinger 2001-2013
</metadata>
<g transform="translate(0.000000,320.000000) scale(0.100000,-0.100000)"
fill="#000000" stroke="none">
<path d="M3030 3129 c-85 -39 -168 -74 -185 -80 -41 -13 -228 -118 -373 -210
-68 -44 -127 -79 -131 -79 -5 0 -24 -12 -43 -27 -20 -16 -46 -35 -58 -43 -46
-31 -118 -86 -195 -150 -44 -37 -88 -71 -97 -76 -44 -24 -411 -380 -488 -474
-25 -30 -71 -82 -102 -115 -32 -32 -58 -62 -58 -66 0 -4 -6 -14 -13 -21 -7 -7
-37 -45 -66 -85 l-55 -72 -65 -11 c-36 -7 -88 -14 -116 -16 -70 -7 -176 -32
-254 -62 -36 -13 -81 -29 -98 -35 -18 -6 -33 -14 -33 -18 0 -5 6 -7 13 -4 56
18 439 30 522 15 28 -4 64 -11 81 -14 62 -11 160 -48 222 -82 36 -19 65 -34
67 -32 1 2 35 53 75 113 40 61 82 117 92 126 10 9 18 19 18 23 0 8 120 170
155 210 6 6 33 38 60 71 28 33 55 65 60 71 6 6 37 42 70 79 33 38 89 96 124
129 35 34 91 87 124 119 32 32 62 56 65 52 4 -3 2 -9 -4 -13 -6 -4 -36 -47
-68 -97 -32 -49 -61 -92 -65 -95 -10 -8 -61 -101 -138 -251 -63 -123 -151
-337 -177 -429 -8 -30 -22 -82 -32 -115 -19 -69 -31 -127 -44 -205 -5 -30 -13
-77 -17 -105 l-9 -50 -79 79 c-121 119 -258 219 -316 229 -15 3 -41 12 -58 21
-17 9 -31 14 -31 10 0 -4 -6 -2 -13 5 -13 10 -102 33 -177 46 -19 3 -42 8 -50
10 -29 8 -186 17 -310 17 -186 1 -389 -12 -627 -38 -32 -4 -68 -7 -80 -7 -13
-1 -23 -5 -23 -9 0 -4 10 -8 23 -8 39 -1 100 -11 185 -31 46 -10 94 -19 106
-19 29 0 185 -51 294 -96 155 -64 472 -234 512 -274 3 -3 34 -27 70 -55 36
-27 72 -57 80 -65 40 -38 103 -90 111 -90 15 0 262 -281 319 -364 19 -28 41
-57 48 -64 7 -8 20 -28 29 -45 33 -64 116 -178 147 -201 57 -44 125 -59 233
-53 54 3 106 8 116 11 9 3 23 8 31 10 11 4 12 13 6 43 -19 86 -26 403 -16 653
7 157 9 178 27 330 6 47 13 105 15 130 3 25 9 65 14 90 5 25 14 74 20 110 14
78 19 101 65 295 20 83 45 177 55 210 53 165 84 254 102 295 11 25 23 54 28
65 7 20 14 36 42 105 8 19 21 51 28 70 8 19 21 46 30 60 9 14 38 68 64 120 25
52 58 113 71 135 13 22 32 53 40 68 22 38 147 229 162 247 33 39 105 141 102
145 -2 2 -74 -28 -159 -66z"/>
<path d="M524 1157 c10 -7 53 -36 95 -65 42 -29 87 -60 101 -69 14 -9 36 -29
49 -45 l23 -29 -47 -97 c-89 -183 -104 -217 -130 -295 -49 -152 -61 -236 -45
-323 14 -73 57 -139 113 -172 38 -22 121 -43 134 -33 4 3 16 26 25 51 56 150
104 257 205 455 28 55 59 118 69 140 10 22 26 52 36 67 10 14 18 31 18 37 0
29 -185 194 -267 238 -195 105 -284 142 -363 149 -31 3 -33 2 -16 -9z"/>
</g>
</svg>
